<svg width="101" height="100" viewBox="0 0 101 100" fill="none" xmlns="http://www.w3.org/2000/svg">
<circle cx="50.3096" cy="50" r="50" fill="#E8E8E8"/>
<path d="M66.34 58.9616L58.9023 54.9865C58.5846 54.8176 58.2315 54.7821 57.8961 54.8851C57.5608 54.9882 57.2613 55.2243 57.0429 55.5579L53.7491 60.5765C48.5798 57.537 44.4197 52.3491 41.9824 45.9026L46.0067 41.795C46.2747 41.5231 46.4645 41.1496 46.5472 40.7312C46.6298 40.3128 46.6009 39.8722 46.4649 39.4761L43.2773 30.2009C43.128 29.7739 42.8638 29.4253 42.5305 29.2151C42.1971 29.005 41.8154 28.9465 41.4511 29.0498L34.5447 31.0373C34.1936 31.1385 33.8802 31.385 33.6559 31.7368C33.4316 32.0886 33.3095 32.5249 33.3096 32.9744C33.3096 54.2163 47.1157 71.4004 64.1226 71.4004C64.4831 71.4007 64.8331 71.2485 65.1153 70.9687C65.3976 70.689 65.5954 70.2981 65.6765 69.86L67.2703 61.2473C67.3526 60.7908 67.3047 60.3129 67.1349 59.8957C66.9651 59.4786 66.684 59.1482 66.34 58.9616Z" fill="#FBB034"/>
</svg>
