<svg width="135" height="22" viewBox="0 0 135 22" fill="none" xmlns="http://www.w3.org/2000/svg">
<path d="M8.45959 4.29509H10.2713V1.13974C9.95871 1.09674 8.88377 1 7.63189 1C5.0198 1 3.23044 2.643 3.23044 5.66274V8.44186H0.347961V11.9693H3.23044V20.845H6.7645V11.9701H9.53039L9.96946 8.44269H6.76367V6.01251C6.7645 4.99297 7.03902 4.29509 8.45959 4.29509V4.29509Z" fill="white"/>
<path d="M72.3096 4.11613C71.4915 4.475 70.6198 4.71288 69.7109 4.82838C70.6459 4.27013 71.3595 3.39287 71.695 2.3355C70.8233 2.85525 69.8608 3.22238 68.835 3.42725C68.0073 2.54588 66.8275 2 65.5405 2C63.0435 2 61.0333 4.02675 61.0333 6.51137C61.0333 6.86887 61.0635 7.21263 61.1378 7.53988C57.3881 7.357 54.0703 5.55987 51.8414 2.82225C51.4523 3.49738 51.224 4.27012 51.224 5.102C51.224 6.664 52.0284 8.04862 53.2274 8.85025C52.5028 8.8365 51.7919 8.62613 51.1896 8.29475C51.1896 8.3085 51.1896 8.32638 51.1896 8.34425C51.1896 10.536 52.753 12.3565 54.8031 12.7759C54.436 12.8763 54.0359 12.9244 53.6206 12.9244C53.3319 12.9244 53.0404 12.9079 52.7668 12.8474C53.3511 14.6335 55.0094 15.9466 56.9811 15.9893C55.4466 17.1896 53.4983 17.9129 51.389 17.9129C51.0191 17.9129 50.6644 17.8964 50.3096 17.851C52.3075 19.1394 54.6753 19.875 57.2286 19.875C65.5281 19.875 70.0656 13 70.0656 7.04075C70.0656 6.84138 70.0588 6.64887 70.0491 6.45775C70.9443 5.8225 71.6964 5.02913 72.3096 4.11613Z" fill="white"/>
<path fill-rule="evenodd" clip-rule="evenodd" d="M119.185 0H127.435C131.231 0 134.31 3.07862 134.31 6.875V15.125C134.31 18.9214 131.231 22 127.435 22H119.185C115.388 22 112.31 18.9214 112.31 15.125V6.875C112.31 3.07862 115.388 0 119.185 0ZM127.435 19.9375C130.088 19.9375 132.247 17.7787 132.247 15.125V6.875C132.247 4.22125 130.088 2.0625 127.435 2.0625H119.185C116.531 2.0625 114.372 4.22125 114.372 6.875V15.125C114.372 17.7787 116.531 19.9375 119.185 19.9375H127.435Z" fill="white"/>
<path fill-rule="evenodd" clip-rule="evenodd" d="M117.81 11C117.81 7.96263 120.272 5.5 123.31 5.5C126.347 5.5 128.81 7.96263 128.81 11C128.81 14.0374 126.347 16.5 123.31 16.5C120.272 16.5 117.81 14.0374 117.81 11ZM119.872 11C119.872 12.8948 121.415 14.4375 123.31 14.4375C125.204 14.4375 126.747 12.8948 126.747 11C126.747 9.10388 125.204 7.5625 123.31 7.5625C121.415 7.5625 119.872 9.10388 119.872 11Z" fill="white"/>
<circle cx="129.222" cy="5.08761" r="0.732875" fill="white"/>
</svg>
