<svg width="117" height="24" viewBox="0 0 117 24" fill="none" xmlns="http://www.w3.org/2000/svg">
<path d="M10.3096 0L13.3996 7.80666L20.3096 9.0662L15.3096 15.1394L16.4896 23.7193L10.3096 19.6663L4.12957 23.7193L5.30957 15.1394L0.30957 9.0662L7.21957 7.80666L10.3096 0Z" fill="#FBB034"/>
<path d="M34.3096 0L37.3996 7.80666L44.3096 9.0662L39.3096 15.1394L40.4896 23.7193L34.3096 19.6663L28.1296 23.7193L29.3096 15.1394L24.3096 9.0662L31.2196 7.80666L34.3096 0Z" fill="#FBB034"/>
<path d="M58.3096 0L61.3996 7.80666L68.3096 9.0662L63.3096 15.1394L64.4896 23.7193L58.3096 19.6663L52.1296 23.7193L53.3096 15.1394L48.3096 9.0662L55.2196 7.80666L58.3096 0Z" fill="#FBB034"/>
<path d="M82.3096 0L85.3996 7.80666L92.3096 9.0662L87.3096 15.1394L88.4896 23.7193L82.3096 19.6663L76.1296 23.7193L77.3096 15.1394L72.3096 9.0662L79.2196 7.80666L82.3096 0Z" fill="#CECECE"/>
<path d="M106.31 0L109.4 7.80666L116.31 9.0662L111.31 15.1394L112.49 23.7193L106.31 19.6663L100.13 23.7193L101.31 15.1394L96.3096 9.0662L103.22 7.80666L106.31 0Z" fill="#CECECE"/>
</svg>
